<svg width="201" height="20" viewBox="0 0 201 20" fill="none" xmlns="http://www.w3.org/2000/svg">
<path d="M1.52026 14V5.46875H4.20972C5.34253 5.46875 6.28784 5.83008 7.04565 6.55273C7.80737 7.27148 8.18823 8.24609 8.18823 9.47656V9.99219C8.18823 11.2227 7.80737 12.1992 7.04565 12.9219C6.28784 13.6406 5.34253 14 4.20972 14H1.52026ZM2.86206 12.9336H4.20386C4.99683 12.9336 5.62964 12.6777 6.10229 12.166C6.57886 11.6504 6.81714 10.9297 6.81714 10.0039V9.46484C6.81714 8.53906 6.57886 7.82031 6.10229 7.30859C5.62964 6.79297 4.99683 6.53516 4.20386 6.53516H2.86206V12.9336ZM9.31909 10.9707V10.7832C9.31909 9.83398 9.59058 9.0625 10.1335 8.46875C10.6765 7.87109 11.3894 7.57227 12.2722 7.57227C13.1589 7.57227 13.8425 7.85156 14.323 8.41016C14.8074 8.96484 15.0496 9.7207 15.0496 10.6777V11.1875H10.1628V10.2324H13.7429V10.1387C13.7429 9.70898 13.6218 9.34375 13.3796 9.04297C13.1414 8.73828 12.7781 8.58594 12.2898 8.58594C11.7468 8.58594 11.3347 8.79297 11.0535 9.20703C10.7761 9.62109 10.6375 10.1387 10.6375 10.7598V10.9883C10.6375 11.6055 10.7839 12.1211 11.0769 12.5352C11.3738 12.9492 11.8269 13.1562 12.4363 13.1562C12.823 13.1562 13.155 13.0723 13.4324 12.9043C13.7097 12.7324 13.9363 12.5312 14.1121 12.3008L14.9734 12.9512C14.7781 13.2676 14.4617 13.5508 14.0242 13.8008C13.5867 14.0508 13.0593 14.1758 12.4421 14.1758C11.4421 14.1758 10.6707 13.8789 10.1277 13.2852C9.58862 12.6875 9.31909 11.916 9.31909 10.9707ZM15.9285 12.125H17.2292V12.1719C17.2292 12.5117 17.3542 12.7656 17.6042 12.9336C17.8582 13.1016 18.1941 13.1855 18.6121 13.1855C19.03 13.1855 19.3562 13.1055 19.5906 12.9453C19.825 12.7852 19.9421 12.5762 19.9421 12.3184C19.9421 12.0566 19.8425 11.8594 19.6433 11.7266C19.448 11.5898 19.0007 11.4453 18.3015 11.293C17.5906 11.1445 17.0457 10.9219 16.6667 10.625C16.2917 10.3242 16.1042 9.91797 16.1042 9.40625C16.1042 8.87109 16.3269 8.43164 16.7722 8.08789C17.2214 7.74414 17.825 7.57227 18.5828 7.57227C19.3406 7.57227 19.948 7.74805 20.405 8.09961C20.8621 8.44727 21.0906 8.91406 21.0906 9.5V9.54102H19.7957V9.48242C19.7957 9.19727 19.696 8.97266 19.4968 8.80859C19.3015 8.64453 18.9949 8.5625 18.5769 8.5625C18.1628 8.5625 17.8621 8.63672 17.6746 8.78516C17.491 8.92969 17.3992 9.11133 17.3992 9.33008C17.3992 9.55273 17.5027 9.73047 17.7097 9.86328C17.9207 9.99219 18.3796 10.1328 19.0867 10.2852C19.7937 10.4336 20.3289 10.6602 20.6921 10.9648C21.0554 11.2656 21.2371 11.6895 21.2371 12.2363C21.2371 12.8105 21.0164 13.2773 20.575 13.6367C20.1375 13.9961 19.4832 14.1758 18.6121 14.1758C17.7449 14.1758 17.0808 13.9941 16.6199 13.6309C16.1589 13.2676 15.9285 12.7793 15.9285 12.166V12.125ZM22.5964 14V7.75391H23.9031V14H22.5964ZM22.4617 5.94922C22.4617 5.74219 22.5281 5.56836 22.6609 5.42773C22.7976 5.2832 22.9929 5.21094 23.2468 5.21094C23.5007 5.21094 23.6941 5.2832 23.8269 5.42773C23.9636 5.56836 24.032 5.74219 24.032 5.94922C24.032 6.16016 23.9636 6.33594 23.8269 6.47656C23.6941 6.61719 23.5007 6.6875 23.2468 6.6875C22.9929 6.6875 22.7976 6.61719 22.6609 6.47656C22.5281 6.33203 22.4617 6.15625 22.4617 5.94922ZM25.5496 15.6699L26.2468 14.7559C26.4226 14.9434 26.6746 15.1113 27.0027 15.2598C27.3347 15.4082 27.7039 15.4824 28.1101 15.4824C28.6257 15.4824 29.0339 15.3359 29.3347 15.043C29.6394 14.7539 29.7917 14.3379 29.7917 13.7949V13.291C29.6121 13.5449 29.3679 13.7461 29.0593 13.8945C28.7507 14.043 28.3796 14.1172 27.946 14.1172C27.1375 14.1172 26.489 13.8223 26.0007 13.2324C25.5125 12.6426 25.2683 11.8887 25.2683 10.9707V10.7832C25.2683 9.86133 25.5125 9.10742 26.0007 8.52148C26.489 7.93164 27.1375 7.63672 27.946 7.63672C28.3796 7.63672 28.7605 7.72461 29.0886 7.90039C29.4167 8.07227 29.6589 8.28516 29.8152 8.53906H29.8445L29.8914 7.75391H31.0984V13.7832C31.0984 14.6777 30.825 15.3633 30.2781 15.8398C29.7312 16.3164 29.0242 16.5547 28.157 16.5547C27.6257 16.5547 27.1335 16.4707 26.6804 16.3027C26.2312 16.1348 25.8542 15.9238 25.5496 15.6699ZM26.6042 10.9883C26.6042 11.5859 26.7371 12.084 27.0027 12.4824C27.2722 12.8809 27.6902 13.0801 28.2566 13.0801C28.6355 13.0801 28.9558 12.9785 29.2175 12.7754C29.4832 12.5684 29.6746 12.334 29.7917 12.0723V9.6875C29.6746 9.41797 29.4832 9.18164 29.2175 8.97852C28.9519 8.77148 28.6296 8.66797 28.2507 8.66797C27.6882 8.66797 27.2722 8.86914 27.0027 9.27148C26.7371 9.66992 26.6042 10.166 26.6042 10.7598V10.9883ZM32.7917 14V7.75391H33.9988L34.0398 8.5332H34.075C34.2898 8.25195 34.5613 8.03125 34.8894 7.87109C35.2214 7.71094 35.5867 7.63086 35.9851 7.63086C36.6335 7.63086 37.1511 7.81445 37.5378 8.18164C37.9285 8.54492 38.1238 9.16406 38.1238 10.0391V14H36.8171V10.0156C36.8171 9.53906 36.7097 9.19922 36.4949 8.99609C36.2839 8.79297 35.9832 8.69141 35.5925 8.69141C35.2566 8.69141 34.9597 8.78125 34.7019 8.96094C34.4441 9.14062 34.2429 9.375 34.0984 9.66406V14H32.7917ZM42.6824 14V5.00586H43.989V8.46289C44.1765 8.20898 44.4246 8.00781 44.7332 7.85938C45.0457 7.70703 45.4167 7.63086 45.8464 7.63086C46.655 7.63086 47.3015 7.92773 47.7859 8.52148C48.2703 9.11133 48.5125 9.86328 48.5125 10.7773V10.9648C48.5125 11.8828 48.2703 12.6387 47.7859 13.2324C47.3015 13.8223 46.655 14.1172 45.8464 14.1172C45.4128 14.1172 45.0281 14.0312 44.6921 13.8594C44.3601 13.6836 44.1179 13.4688 43.9656 13.2148H43.9304L43.8835 14H42.6824ZM43.989 12.0605C44.1062 12.3262 44.2957 12.5625 44.5574 12.7695C44.823 12.9766 45.1492 13.0801 45.5359 13.0801C46.0984 13.0801 46.5105 12.8809 46.7722 12.4824C47.0378 12.084 47.1707 11.5859 47.1707 10.9883V10.7598C47.1707 10.166 47.0378 9.66992 46.7722 9.27148C46.5105 8.86914 46.0984 8.66797 45.5359 8.66797C45.1531 8.66797 44.8289 8.77148 44.5632 8.97852C44.2976 9.18555 44.1062 9.42188 43.989 9.6875V12.0605ZM49.321 16.4375V15.3887C49.4265 15.4199 49.5437 15.4453 49.6726 15.4648C49.8015 15.4844 49.9246 15.4941 50.0417 15.4941C50.323 15.4941 50.5613 15.4023 50.7566 15.2188C50.9558 15.0391 51.1628 14.6211 51.3777 13.9648L51.3484 13.959L48.9636 7.75391H50.2585L51.6941 11.709C51.7527 11.8613 51.8015 12.0098 51.8406 12.1543C51.8835 12.2949 51.9207 12.4316 51.9519 12.5645H51.9871C52.0183 12.4316 52.0554 12.2949 52.0984 12.1543C52.1414 12.0137 52.1902 11.8652 52.2449 11.709L53.5925 7.75391H54.8171L52.2214 14.8027C52.0144 15.3613 51.7371 15.793 51.3894 16.0977C51.0457 16.4062 50.6218 16.5605 50.1179 16.5605C49.9539 16.5605 49.8074 16.5488 49.6785 16.5254C49.5496 16.5059 49.4304 16.4766 49.321 16.4375Z" fill="white"/>
<path d="M120.938 12.2564C120.938 11.8566 120.967 11.7699 121.195 11.5419L124.024 8.91373C124.109 8.82867 124.138 8.74192 124.138 8.62794V8.4C124.138 8.17205 123.937 8.00024 123.738 8.00024H121.338C121.11 8.00024 120.938 7.82843 120.938 7.60048V0.399757C120.938 0.17181 121.11 0 121.338 0H125.109C125.31 0 125.509 0.17181 125.509 0.399757V6.79927C125.509 7.02722 125.681 7.19903 125.909 7.19903H126.137C126.251 7.19903 126.338 7.17011 126.423 7.08505L129.48 4.25613C129.707 4.02819 129.794 3.99927 130.165 3.99927H133.336C135.736 3.99927 136.935 5.19854 136.935 7.59878V11.8277C136.935 12.2275 136.907 12.3414 136.679 12.5422L128.908 19.7412C128.68 19.9691 128.593 19.998 128.194 19.998H124.536C122.136 19.998 120.937 18.7988 120.937 16.3985V12.2564H120.938ZM131.967 8.00024H125.911C125.683 8.00024 125.511 8.17205 125.511 8.4V15.599C125.511 15.827 125.683 15.9988 125.911 15.9988H131.967C132.167 15.9988 132.366 15.827 132.366 15.599V8.4C132.366 8.17205 132.166 8.00024 131.967 8.00024Z" fill="white"/>
<path d="M137.653 16.3985V12.1696C137.653 11.7699 137.681 11.6848 137.909 11.4552L145.68 4.25613C145.908 4.02819 145.995 3.99927 146.394 3.99927H150.338C152.738 3.99927 153.937 5.19854 153.937 7.59878V11.8277C153.937 12.2275 153.908 12.3125 153.68 12.5422L145.91 19.7412C145.682 19.9691 145.595 19.998 145.195 19.998H141.252C138.852 19.998 137.653 18.7988 137.653 16.3985ZM142.623 15.9988H148.965C149.193 15.9988 149.365 15.827 149.365 15.599V8.39999C149.365 8.17205 149.193 8.00024 148.965 8.00024H142.623C142.422 8.00024 142.223 8.17205 142.223 8.39999V15.599C142.223 15.827 142.422 15.9988 142.623 15.9988Z" fill="white"/>
<path d="M154.648 16.3985V12.1696C154.648 11.7699 154.677 11.6848 154.905 11.4552L162.676 4.25613C162.904 4.02819 162.99 3.99927 163.39 3.99927H167.333C169.733 3.99927 170.933 5.19854 170.933 7.59878V11.8277C170.933 12.2275 170.904 12.3125 170.676 12.5422L162.905 19.7412C162.677 19.9691 162.591 19.998 162.191 19.998H158.248C155.847 19.998 154.648 18.7988 154.648 16.3985ZM159.619 15.9988H165.96C166.188 15.9988 166.36 15.827 166.36 15.599V8.39999C166.36 8.17205 166.188 8.00024 165.96 8.00024H159.619C159.418 8.00024 159.219 8.17205 159.219 8.39999V15.599C159.219 15.827 159.42 15.9988 159.619 15.9988Z" fill="white"/>
<path d="M169.217 19.3415L172.417 16.3986C172.674 16.1707 172.931 15.9989 173.446 15.9989H180.989C181.19 15.9989 181.389 15.8271 181.389 15.5991V11.2852C181.389 10.9994 181.56 10.8565 181.989 10.8565H185.504C185.76 10.8565 185.903 10.9994 185.903 11.2562V12.2565C185.903 12.4572 185.846 12.6001 185.703 12.7413L177.99 19.8842C177.905 19.9692 177.818 19.9982 177.704 19.9982H169.476C168.991 19.9982 168.848 19.6835 169.219 19.3415H169.217ZM171.874 11.7989C171.874 11.5982 171.932 11.4553 172.075 11.3124L179.817 4.11335C179.902 4.02829 179.989 3.99937 180.103 3.99937H187.873V0.685646C187.873 0.457699 188.045 0.285889 188.273 0.285889H191.473C192.243 0.285889 192.444 0.457699 192.444 0.685646V6.79937C192.444 7.05624 192.558 7.19913 192.788 7.19913C192.931 7.19913 193.045 7.17021 193.187 7.02732L196.302 4.11335C196.387 4.02829 196.474 3.99937 196.559 3.99937H200.558C201.016 3.99937 201.13 4.39913 200.844 4.68492L197.53 7.88467C197.445 7.96972 197.358 7.99864 197.245 7.99864H192.845C192.618 7.99864 192.446 8.17045 192.446 8.3984V15.5974C192.446 15.8254 192.618 15.9972 192.845 15.9972H200.558C201.016 15.9972 201.13 16.3969 200.844 16.6827L197.53 19.8825C197.445 19.9675 197.358 19.9965 197.245 19.9965H191.474C189.074 19.9965 187.875 18.7972 187.875 16.3969V11.855C187.875 11.741 187.904 11.6543 187.989 11.5692L190.961 8.74032C191.075 8.62635 191.132 8.56851 191.132 8.36948C191.132 8.14154 190.99 7.99864 190.733 7.99864H188.247C188.019 7.99864 187.848 7.82683 187.848 7.59889V5.19864C187.848 4.99792 187.676 4.79889 187.448 4.79889H187.22C187.106 4.79889 187.021 4.82781 186.934 4.91286L184.163 7.88467C184.078 7.96972 183.991 7.99864 183.877 7.99864H176.821C176.622 7.99864 176.421 8.17045 176.421 8.3984V12.7124C176.421 12.9982 176.25 13.141 175.821 13.141H172.278C172.021 13.141 171.878 12.9982 171.878 12.7413V11.7989H171.874Z" fill="white"/>
<path fill-rule="evenodd" clip-rule="evenodd" d="M87.9126 3.99964L110.673 3.99963V4.00304C113.073 4.00304 114.272 5.20231 114.272 7.60255V11.8298C114.272 12.2295 114.243 12.3163 114.015 12.5442L106.243 19.7432C106.015 19.9712 105.93 20.0001 105.53 20.0001L82.7702 20.0001C80.3699 20.0001 79.1707 18.7991 79.1707 16.4006V12.1717C79.1707 11.7719 79.1996 11.6852 79.4275 11.4572L87.1981 4.25651C87.4261 4.02856 87.5128 3.99964 87.9126 3.99964ZM95.5563 14.0465C96.5109 14.0465 97.0762 13.6252 97.0762 12.9213C97.0762 12.4147 96.7829 12.0574 96.0576 11.8707L95.4017 11.7161C95.0711 11.6254 94.9377 11.4814 94.9377 11.2628C94.9377 10.9908 95.1617 10.8148 95.535 10.8148C95.871 10.8148 96.1376 10.9642 96.1963 11.3481H96.9855C96.9269 10.6602 96.4256 10.2602 95.5563 10.2602C94.6338 10.2602 94.1111 10.6815 94.1111 11.3321C94.1111 11.8334 94.4044 12.18 95.0231 12.34L95.6737 12.4893C96.0736 12.596 96.2336 12.7507 96.2336 13.0066C96.2336 13.3106 95.9776 13.4919 95.5883 13.4919C95.1724 13.4919 94.9111 13.3106 94.8524 12.9373H94.0525C94.1165 13.6679 94.6338 14.0465 95.5563 14.0465ZM88.7228 13.9985H87.2936V10.3189H88.7228C89.8907 10.3189 90.408 10.9428 90.408 12.1587C90.408 13.3746 89.8907 13.9985 88.7228 13.9985ZM88.0935 10.9588V13.3586H88.6855C89.3094 13.3586 89.5707 12.9426 89.5707 12.1587C89.5707 11.3695 89.3094 10.9588 88.6855 10.9588H88.0935ZM93.5879 13.9985H91.0601V10.3189H93.5612V10.9535H91.8014V11.8174H93.3052V12.42H91.8014V13.3693H93.5879V13.9985ZM98.4874 13.9985H97.6875V10.3189H98.4874V13.9985ZM100.695 14.0519C101.341 14.0519 101.655 13.7212 101.81 13.3586H101.917L101.826 13.7106V13.9985H102.386V12.0307H100.717V12.5373H101.597C101.559 13.0706 101.325 13.4119 100.839 13.4119C100.29 13.4119 99.9861 12.9693 99.9861 12.1694C99.9861 11.3481 100.29 10.9055 100.829 10.9055C101.234 10.9055 101.495 11.1668 101.57 11.5934H102.391C102.306 10.7722 101.757 10.2656 100.829 10.2656C99.7568 10.2656 99.1595 10.9482 99.1595 12.1587C99.1595 13.3693 99.7621 14.0519 100.695 14.0519ZM103.81 13.9985H103.09V10.3189H103.89L105.287 12.4573L105.404 12.7933H105.522L105.474 12.4307L105.452 10.3189H106.167V13.9985H105.372L103.986 11.8547L103.863 11.5241H103.751L103.794 11.8867L103.81 13.9985Z" fill="white"/>
</svg>
