<svg width="32" height="33" viewBox="0 0 32 33" fill="none" xmlns="http://www.w3.org/2000/svg">
<rect y="0.5" width="32" height="32" rx="6" fill="#F09104"/>
<path d="M11.9707 20.5L11.9707 13.6504L9.90234 14.459L9.90234 12.9941L12.8848 11.8691H13.7227L13.7227 20.5H11.9707ZM16.2598 20.5V19.4219L19.3184 16.1289C19.6621 15.7617 19.9258 15.4297 20.1094 15.1328C20.293 14.8359 20.3848 14.5254 20.3848 14.2012C20.3848 13.8848 20.2871 13.625 20.0918 13.4219C19.9004 13.2148 19.6211 13.1113 19.2539 13.1113C18.8828 13.1113 18.584 13.2344 18.3574 13.4805C18.1309 13.7227 18.0137 14.082 18.0059 14.5586V14.6934L16.2305 14.6934V14.541C16.2305 13.7246 16.5078 13.0625 17.0625 12.5547C17.6211 12.0469 18.3516 11.793 19.2539 11.793C20.1953 11.793 20.916 12.0156 21.416 12.4609C21.916 12.9062 22.168 13.4648 22.1719 14.1367C22.1719 14.6953 22.0234 15.1914 21.7266 15.625C21.4336 16.0586 21.0664 16.5098 20.625 16.9785L18.5508 19.1406H22.3594V20.5H16.2598Z" fill="white"/>
</svg>
